<?xml version="1.0" standalone="no"?>
<!DOCTYPE svg PUBLIC "-//W3C//DTD SVG 20010904//EN"
 "http://www.w3.org/TR/2001/REC-SVG-20010904/DTD/svg10.dtd">
<svg version="1.0" xmlns="http://www.w3.org/2000/svg"
 width="411.000000pt" height="411.000000pt" viewBox="0 0 411.000000 411.000000"
 preserveAspectRatio="xMidYMid meet">
<metadata>
Created by potrace 1.11, written by Peter Selinger 2001-2013
</metadata>
<g transform="translate(0.000000,411.000000) scale(0.100000,-0.100000)"
fill="#000000" stroke="none">
<path d="M1669 3886 c-2 -2 -28 -7 -58 -10 -318 -34 -669 -181 -926 -389 -86
-70 -240 -229 -306 -317 -257 -340 -381 -718 -374 -1139 3 -176 6 -201 36
-351 137 -693 704 -1269 1393 -1416 133 -29 162 -32 301 -39 l120 -6 -85 35
c-521 219 -900 605 -1095 1117 -36 93 -81 252 -91 319 -3 19 -7 42 -9 50 -13
50 -20 158 -20 320 0 193 9 253 57 400 126 385 457 710 839 823 155 46 235 58
382 58 165 0 286 -22 446 -80 276 -101 528 -315 667 -568 21 -38 38 -69 39
-70 3 -5 520 130 528 137 5 4 -16 57 -46 117 -228 453 -623 787 -1107 935
-166 50 -297 70 -501 74 -102 2 -188 2 -190 0z"/>
<path d="M2518 3865 c178 -69 421 -211 552 -322 124 -105 271 -271 367 -413
44 -66 121 -198 132 -225 2 -5 14 -34 27 -63 24 -51 26 -53 58 -49 19 2 38 7
43 10 5 3 20 8 34 11 48 10 65 14 94 26 17 6 30 10 30 9 0 -2 20 2 45 8 25 7
77 20 115 29 39 9 73 20 78 24 4 3 -19 47 -50 97 -59 93 -67 105 -137 197 -51
68 -254 267 -314 308 -26 18 -51 36 -57 41 -45 38 -331 199 -355 199 -3 0 -16
5 -30 11 -29 12 -20 9 -130 43 -92 28 -182 50 -245 58 -22 3 -51 7 -65 10 -14
4 -77 8 -140 11 l-115 5 63 -25z"/>
<path d="M1664 3230 c-11 -4 -42 -11 -69 -14 -79 -11 -230 -63 -305 -106 -14
-8 -27 -15 -30 -15 -11 -2 -99 -61 -160 -108 -219 -171 -370 -420 -436 -722
-8 -37 -14 -367 -6 -379 2 -5 6 -33 9 -64 6 -95 51 -276 108 -432 48 -135 159
-329 267 -470 44 -57 209 -225 279 -285 123 -105 273 -193 492 -290 43 -18
186 -62 226 -69 14 -2 26 -5 26 -6 0 -3 63 -15 130 -26 94 -14 166 -19 300
-19 163 1 221 6 360 36 28 6 61 13 75 15 31 6 144 42 185 59 17 7 41 16 53 20
81 24 355 185 462 270 52 42 268 262 293 300 12 18 45 65 72 106 70 102 117
187 108 192 -12 7 -78 26 -163 47 -41 10 -90 23 -107 28 -18 6 -33 8 -33 5 0
-3 -6 -1 -12 4 -7 6 -38 16 -68 22 -30 7 -62 15 -70 18 -8 3 -20 7 -26 8 -6 2
-20 6 -31 9 -16 5 -30 -8 -73 -66 -60 -83 -195 -219 -276 -279 -147 -108 -313
-184 -496 -225 -10 -2 -28 -6 -40 -9 -116 -26 -385 -20 -508 10 -168 42 -325
111 -450 199 -70 49 -99 74 -190 166 -192 192 -311 436 -355 725 -9 61 -12
266 -4 305 4 19 10 58 14 85 8 62 11 76 17 95 3 8 18 53 33 100 96 302 327
570 630 733 l70 37 -141 -1 c-77 -1 -149 -5 -160 -9z m-179 -88 c-3 -3 -11 0
-18 7 -9 10 -8 11 6 5 10 -3 15 -9 12 -12z m120 8 c3 -5 1 -10 -4 -10 -6 0
-11 5 -11 10 0 6 2 10 4 10 3 0 8 -4 11 -10z m-161 -158 c3 -5 -1 -9 -9 -9 -8
0 -12 4 -9 9 3 4 7 8 9 8 2 0 6 -4 9 -8z m240 -2008 c3 -8 2 -12 -4 -9 -6 3
-10 10 -10 16 0 14 7 11 14 -7z m-77 -269 c0 -8 -4 -12 -9 -9 -5 3 -6 10 -3
15 9 13 12 11 12 -6z m173 -119 c0 -2 -8 -10 -17 -17 -16 -13 -17 -12 -4 4 13
16 21 21 21 13z m1150 -6 c0 -5 -2 -10 -4 -10 -3 0 -8 5 -11 10 -3 6 -1 10 4
10 6 0 11 -4 11 -10z m435 -8 c-3 -3 -11 0 -18 7 -9 10 -8 11 6 5 10 -3 15 -9
12 -12z"/>
<path d="M2975 1469 c-113 -224 -343 -456 -554 -556 -33 -15 -60 -31 -60 -35
-1 -12 161 -13 264 -2 188 19 403 107 570 233 111 83 279 272 259 290 -5 5
-45 18 -89 29 -44 11 -124 32 -178 47 -54 14 -108 29 -120 32 -12 2 -32 7 -44
10 -18 4 -26 -4 -48 -48z"/>
</g>
</svg>
